<svg width="248" height="50" viewBox="0 0 248 50" fill="none" xmlns="http://www.w3.org/2000/svg">
<path d="M5.57026 34V8.568L8.05226 8.432V24.786L10.1263 23.358L15.1923 17H17.0623L11.4523 23.97L17.7763 34H14.9543L9.54826 25.432L8.05226 26.35V34H5.57026ZM30.8341 34.34C28.5675 34.34 26.7881 33.6373 25.4961 32.232C24.2041 30.804 23.5581 28.6733 23.5581 25.84C23.5581 22.984 24.1815 20.74 25.4281 19.108C26.6748 17.476 28.3748 16.66 30.5281 16.66C32.4775 16.66 33.9735 17.34 35.0161 18.7C36.0815 20.0373 36.6141 21.9413 36.6141 24.412C36.6141 24.8427 36.5915 25.194 36.5461 25.466C36.5008 25.738 36.4668 25.908 36.4441 25.976H26.1421C26.1421 30.5547 27.7968 32.844 31.1061 32.844C32.0128 32.844 32.7835 32.6853 33.4181 32.368C34.0755 32.028 34.5855 31.6767 34.9481 31.314C35.3108 30.9287 35.4921 30.702 35.4921 30.634L36.4781 31.45C36.4781 31.5407 36.2628 31.8353 35.8321 32.334C35.4015 32.81 34.7668 33.2633 33.9281 33.694C33.0895 34.1247 32.0581 34.34 30.8341 34.34ZM34.3021 24.548L34.3361 23.902C34.3361 20.0487 33.0668 18.122 30.5281 18.122C29.1908 18.122 28.1595 18.6547 27.4341 19.72C26.7088 20.7627 26.2895 22.372 26.1761 24.548H34.3021ZM43.9964 17H46.0364L46.3424 18.632C46.705 18.2013 47.2717 17.7707 48.0424 17.34C48.813 16.8867 49.9237 16.66 51.3744 16.66C53.0064 16.66 54.2757 17.1247 55.1824 18.054C56.089 18.9607 56.5424 20.3207 56.5424 22.134V34H54.0604V22.644C54.0604 21.1933 53.7657 20.1393 53.1764 19.482C52.587 18.802 51.7144 18.462 50.5584 18.462C49.7424 18.462 49.0284 18.5867 48.4164 18.836C47.8044 19.0853 47.317 19.3573 46.9544 19.652C46.6144 19.9467 46.4444 20.1167 46.4444 20.162V34H43.9964V17ZM70.6768 34.34C68.6141 34.34 66.9595 33.6033 65.7128 32.13C64.4661 30.6567 63.8428 28.6053 63.8428 25.976C63.8428 23.1427 64.4435 20.8873 65.6448 19.21C66.8688 17.51 68.5801 16.66 70.7788 16.66C71.7081 16.66 72.4901 16.7847 73.1248 17.034C73.7595 17.2607 74.2468 17.5213 74.5868 17.816C74.9268 18.088 75.0968 18.2467 75.0968 18.292H75.1308V8.568L77.5788 8.432V34H75.4708L75.1988 31.994C74.9495 32.4927 74.4621 33.014 73.7368 33.558C73.0115 34.0793 71.9915 34.34 70.6768 34.34ZM71.2208 32.674C72.0368 32.674 72.7395 32.504 73.3288 32.164C73.9181 31.8013 74.3601 31.416 74.6548 31.008C74.9721 30.6 75.1308 30.362 75.1308 30.294V19.856C75.1308 19.8107 74.9721 19.652 74.6548 19.38C74.3601 19.108 73.9408 18.8587 73.3968 18.632C72.8755 18.4053 72.2521 18.292 71.5268 18.292C69.7815 18.292 68.5008 18.938 67.6848 20.23C66.8688 21.4993 66.4608 23.392 66.4608 25.908C66.4608 28.288 66.8575 30.0107 67.6508 31.076C68.4668 32.1413 69.6568 32.674 71.2208 32.674ZM87.6301 13.566C87.2221 13.566 86.8934 13.4413 86.6441 13.192C86.3494 12.8973 86.2021 12.5347 86.2021 12.104C86.2021 11.6733 86.3494 11.3107 86.6441 11.016C86.8934 10.7667 87.2221 10.642 87.6301 10.642C88.0607 10.642 88.4007 10.7553 88.6501 10.982C88.9221 11.2767 89.0581 11.6507 89.0581 12.104C89.0581 12.512 88.9221 12.8747 88.6501 13.192C88.3327 13.4413 87.9927 13.566 87.6301 13.566ZM86.3721 34V17H88.8541V34H86.3721ZM97.6832 17H99.7232L100.029 18.632C100.392 18.2013 100.958 17.7707 101.729 17.34C102.5 16.8867 103.61 16.66 105.061 16.66C106.693 16.66 107.962 17.1247 108.869 18.054C109.776 18.9607 110.229 20.3207 110.229 22.134V34H107.747V22.644C107.747 21.1933 107.452 20.1393 106.863 19.482C106.274 18.802 105.401 18.462 104.245 18.462C103.429 18.462 102.715 18.5867 102.103 18.836C101.491 19.0853 101.004 19.3573 100.641 19.652C100.301 19.9467 100.131 20.1167 100.131 20.162V34H97.6832V17ZM124.806 34.34C122.539 34.34 120.76 33.6373 119.468 32.232C118.176 30.804 117.53 28.6733 117.53 25.84C117.53 22.984 118.153 20.74 119.4 19.108C120.646 17.476 122.346 16.66 124.5 16.66C126.449 16.66 127.945 17.34 128.988 18.7C130.053 20.0373 130.586 21.9413 130.586 24.412C130.586 24.8427 130.563 25.194 130.518 25.466C130.472 25.738 130.438 25.908 130.416 25.976H120.114C120.114 30.5547 121.768 32.844 125.078 32.844C125.984 32.844 126.755 32.6853 127.39 32.368C128.047 32.028 128.557 31.6767 128.92 31.314C129.282 30.9287 129.464 30.702 129.464 30.634L130.45 31.45C130.45 31.5407 130.234 31.8353 129.804 32.334C129.373 32.81 128.738 33.2633 127.9 33.694C127.061 34.1247 126.03 34.34 124.806 34.34ZM128.274 24.548L128.308 23.902C128.308 20.0487 127.038 18.122 124.5 18.122C123.162 18.122 122.131 18.6547 121.406 19.72C120.68 20.7627 120.261 22.372 120.148 24.548H128.274ZM138.002 42.84C137.594 42.84 137.243 42.806 136.948 42.738C136.653 42.67 136.427 42.602 136.268 42.534C136.109 42.466 136.007 42.4207 135.962 42.398L136.234 40.834C136.302 40.8793 136.472 40.936 136.744 41.004C137.016 41.0947 137.311 41.14 137.628 41.14C138.671 41.14 139.543 40.5733 140.246 39.44C140.949 38.3293 141.731 36.584 142.592 34.204L135.928 17H138.852L143.884 31.212L148.44 17H150.242L144.36 34.272C143.385 37.06 142.422 39.1793 141.47 40.63C140.541 42.1033 139.385 42.84 138.002 42.84ZM160.483 34.34C158.987 34.34 157.786 33.9773 156.879 33.252C155.973 32.504 155.519 31.4727 155.519 30.158C155.519 26.826 158.727 24.82 165.141 24.14V22.338C165.141 20.7287 164.881 19.6293 164.359 19.04C163.838 18.4507 162.92 18.156 161.605 18.156C161.016 18.156 160.415 18.2693 159.803 18.496C159.191 18.7 158.67 18.9267 158.239 19.176C157.831 19.4027 157.571 19.55 157.457 19.618L157.185 18.224C157.299 18.1333 157.582 17.9633 158.035 17.714C158.511 17.4647 159.101 17.2267 159.803 17C160.529 16.7733 161.254 16.66 161.979 16.66C163.929 16.66 165.357 17.068 166.263 17.884C167.17 18.7 167.623 20.1393 167.623 22.202V30.532C167.623 31.4387 167.703 32.0507 167.861 32.368C168.043 32.6853 168.258 32.844 168.507 32.844C168.711 32.844 168.961 32.81 169.255 32.742C169.55 32.6513 169.743 32.5833 169.833 32.538L169.935 33.694C169.754 33.762 169.369 33.8867 168.779 34.068C168.19 34.2493 167.691 34.34 167.283 34.34C166.694 34.34 166.241 34.1587 165.923 33.796C165.606 33.4107 165.413 32.742 165.345 31.79H165.311C165.311 31.8807 165.13 32.1413 164.767 32.572C164.405 33.0027 163.861 33.4107 163.135 33.796C162.433 34.1587 161.549 34.34 160.483 34.34ZM161.231 32.844C162.047 32.844 162.75 32.6627 163.339 32.3C163.929 31.9373 164.371 31.5407 164.665 31.11C164.983 30.6793 165.141 30.43 165.141 30.362V25.398C163.079 25.6247 161.379 26.0667 160.041 26.724C158.727 27.3813 158.069 28.424 158.069 29.852C158.069 30.8267 158.353 31.5747 158.919 32.096C159.486 32.5947 160.257 32.844 161.231 32.844ZM175.564 34V32.64L184.268 18.53H176.312L176.21 17H187.124V18.36L178.488 32.47H187.056L187.124 34H175.564ZM194.742 34V17H197.224V34H194.742ZM206.053 34V8.568L208.501 8.432V34H206.053ZM220.865 34.34C219.369 34.34 218.168 33.9773 217.261 33.252C216.355 32.504 215.901 31.4727 215.901 30.158C215.901 26.826 219.109 24.82 225.523 24.14V22.338C225.523 20.7287 225.263 19.6293 224.741 19.04C224.22 18.4507 223.302 18.156 221.987 18.156C221.398 18.156 220.797 18.2693 220.185 18.496C219.573 18.7 219.052 18.9267 218.621 19.176C218.213 19.4027 217.953 19.55 217.839 19.618L217.567 18.224C217.681 18.1333 217.964 17.9633 218.417 17.714C218.893 17.4647 219.483 17.2267 220.185 17C220.911 16.7733 221.636 16.66 222.361 16.66C224.311 16.66 225.739 17.068 226.645 17.884C227.552 18.7 228.005 20.1393 228.005 22.202V30.532C228.005 31.4387 228.085 32.0507 228.243 32.368C228.425 32.6853 228.64 32.844 228.889 32.844C229.093 32.844 229.343 32.81 229.637 32.742C229.932 32.6513 230.125 32.5833 230.215 32.538L230.317 33.694C230.136 33.762 229.751 33.8867 229.161 34.068C228.572 34.2493 228.073 34.34 227.665 34.34C227.076 34.34 226.623 34.1587 226.305 33.796C225.988 33.4107 225.795 32.742 225.727 31.79H225.693C225.693 31.8807 225.512 32.1413 225.149 32.572C224.787 33.0027 224.243 33.4107 223.517 33.796C222.815 34.1587 221.931 34.34 220.865 34.34ZM221.613 32.844C222.429 32.844 223.132 32.6627 223.721 32.3C224.311 31.9373 224.753 31.5407 225.047 31.11C225.365 30.6793 225.523 30.43 225.523 30.362V25.398C223.461 25.6247 221.761 26.0667 220.423 26.724C219.109 27.3813 218.451 28.424 218.451 29.852C218.451 30.8267 218.735 31.5747 219.301 32.096C219.868 32.5947 220.639 32.844 221.613 32.844ZM237.272 17H239.108L239.482 20.502C239.482 20.366 239.607 19.9807 239.856 19.346C240.128 18.6887 240.536 18.0767 241.08 17.51C241.624 16.9433 242.327 16.66 243.188 16.66C243.619 16.66 244.106 16.7393 244.65 16.898C245.194 17.034 245.546 17.136 245.704 17.204L245.466 19.074C245.308 19.006 244.945 18.904 244.378 18.768C243.834 18.632 243.347 18.564 242.916 18.564C242.259 18.564 241.692 18.7907 241.216 19.244C240.763 19.6747 240.423 20.1393 240.196 20.638C239.97 21.1367 239.822 21.5107 239.754 21.76V34H237.272V17Z" fill="black"/>
</svg>
